<?xml version="1.0" standalone="no"?>
<!DOCTYPE svg PUBLIC "-//W3C//DTD SVG 20010904//EN"
 "http://www.w3.org/TR/2001/REC-SVG-20010904/DTD/svg10.dtd">
<svg version="1.0" xmlns="http://www.w3.org/2000/svg"
 width="290.000000pt" height="174.000000pt" viewBox="0 0 290.000000 174.000000"
 preserveAspectRatio="xMidYMid meet">
<metadata>
Created by potrace 1.16, written by Peter Selinger 2001-2019
</metadata>
<g transform="translate(0.000000,174.000000) scale(0.100000,-0.100000)"
fill="#000000" stroke="none">
<path d="M0 870 l0 -870 1450 0 1450 0 0 870 0 870 -1450 0 -1450 0 0 -870z
m1411 730 c16 -16 33 -29 37 -28 4 0 12 -9 18 -21 6 -11 13 -19 16 -16 3 3 11
-2 19 -11 11 -14 10 -15 -7 -12 -16 2 -20 -4 -24 -42 -4 -32 -1 -49 10 -58 11
-10 11 -12 1 -6 -10 5 -12 3 -7 -5 13 -21 54 -31 81 -21 19 7 25 17 25 40 0
32 -18 47 -46 36 -15 -6 -15 -8 0 -25 16 -17 16 -19 -1 -25 -17 -7 -53 24 -53
46 0 15 48 58 65 58 9 0 30 7 48 15 29 14 30 14 13 0 -11 -8 -25 -15 -30 -15
-6 -1 1 -7 16 -15 33 -18 46 -71 29 -113 -24 -58 -108 -81 -148 -39 -52 53
-63 68 -63 87 0 11 -2 20 -4 20 -2 0 -12 3 -21 7 -16 6 -16 4 1 -23 l18 -29
-35 32 c-19 18 -37 32 -42 32 -4 0 -23 11 -43 25 -30 20 -33 25 -17 28 10 2 0
7 -21 9 -39 5 -39 5 -16 -10 75 -49 205 -157 219 -182 9 -16 22 -29 29 -29 6
0 12 -5 12 -10 0 -7 -6 -7 -19 0 -13 7 -22 7 -26 0 -11 -18 -88 -11 -179 16
-49 14 -104 27 -122 28 -42 4 -54 14 -32 27 14 8 15 15 8 35 -17 44 -13 64 14
64 31 0 44 -17 48 -64 4 -50 23 -58 24 -11 0 20 6 41 12 47 20 20 35 -6 30
-51 l-4 -42 50 -14 c58 -18 59 -18 52 -6 -3 4 1 17 9 27 14 18 14 18 15 -8 0
-28 14 -38 43 -30 28 7 16 23 -69 85 -149 109 -151 110 -213 104 -31 -3 -75
-12 -99 -20 -23 -8 -44 -11 -47 -7 -5 8 41 51 48 44 3 -3 21 6 41 20 21 14 44
22 56 19 22 -6 29 22 8 30 -7 2 4 5 25 5 33 0 38 -3 34 -19 -3 -12 0 -19 8
-19 8 0 11 8 8 20 -5 17 0 20 28 20 l34 -1 -24 -19 c-16 -14 -19 -20 -8 -20 8
0 22 -3 31 -6 12 -5 16 1 16 24 0 58 72 71 121 22z m342 -233 c40 -24 107 -93
107 -112 0 -6 -152 0 -210 8 -14 2 -31 5 -37 5 -18 3 -16 32 2 32 8 0 15 -4
15 -9 0 -6 10 -8 22 -6 12 3 28 -1 37 -8 12 -9 13 -9 7 1 -4 7 -1 12 9 12 9 0
13 -5 9 -11 -4 -7 -1 -10 6 -7 27 9 20 25 -16 36 -21 6 -41 9 -46 6 -4 -3 -16
2 -25 12 -16 15 -15 16 18 9 19 -4 62 -18 97 -30 67 -24 79 -24 32 0 -17 9
-28 20 -25 25 3 5 1 12 -5 15 -6 4 -10 3 -9 -2 4 -23 -3 -25 -17 -5 -8 12 -19
20 -24 17 -12 -7 -62 24 -55 35 9 14 64 3 108 -23z m-217 -325 c-13 -48 -17
-82 -8 -82 5 0 12 13 15 28 6 30 45 55 66 43 16 -10 3 -41 -15 -34 -13 5 -32
-22 -22 -32 8 -8 48 7 42 16 -6 10 40 59 55 59 6 0 18 -11 26 -24 12 -18 13
-30 6 -49 -12 -30 -54 -45 -75 -28 -10 9 -20 9 -40 0 -19 -9 -29 -9 -39 -1
-10 9 -16 9 -25 0 -22 -22 -38 -2 -34 41 2 22 8 41 14 41 5 0 6 5 3 10 -8 14
14 42 27 34 5 -3 7 -13 4 -22z m-235 -5 c-15 -15 -14 -90 1 -105 7 -7 23 -12
36 -12 34 0 22 -24 -14 -28 -42 -4 -69 28 -68 81 l2 41 -15 -30 c-33 -65 -43
-76 -59 -63 -8 6 -14 22 -14 35 0 12 -5 26 -11 30 -9 5 -10 -6 -7 -40 l6 -46
-34 0 c-19 0 -34 5 -34 10 0 6 4 10 9 10 10 0 33 91 28 113 -1 7 11 13 29 15
30 3 32 1 38 -39 l7 -43 24 39 c13 22 34 43 47 46 29 7 43 0 29 -14z m669
-129 c0 -7 10 -26 21 -43 l21 -30 -5 28 c-2 15 0 30 4 33 5 3 10 -12 11 -33 1
-26 4 -18 8 27 l7 65 1 -70 c1 -38 -3 -77 -8 -85 -5 -8 -10 -10 -11 -5 0 6 -5
1 -10 -10 -8 -17 -8 -16 -4 7 3 15 0 30 -6 34 -9 5 -11 -6 -7 -38 3 -27 0 -58
-8 -78 -8 -18 -12 -36 -9 -40 3 -4 -1 -13 -9 -19 -14 -12 -10 -51 5 -51 5 0 6
8 3 18 -4 11 -3 13 3 5 6 -9 12 -7 21 7 9 15 9 20 1 20 -7 0 -4 9 6 20 17 18
17 20 2 14 -23 -8 -22 3 1 15 20 11 20 10 25 -44 1 -21 -2 -30 -13 -30 -8 0
-21 -8 -28 -17 -17 -23 -31 -23 -39 0 -4 9 -13 23 -20 30 -9 10 -10 19 -3 32
13 24 13 30 0 30 -5 0 -10 -7 -10 -15 0 -9 -12 -39 -26 -67 -15 -30 -23 -59
-20 -72 4 -15 -1 -26 -15 -35 -12 -7 -19 -9 -16 -4 6 10 -19 34 -27 26 -3 -4
-6 -17 -6 -30 0 -16 4 -22 13 -17 6 4 4 -2 -6 -12 -15 -16 -19 -17 -27 -4 -5
8 -7 24 -4 35 4 16 3 17 -5 5 -6 -8 -8 -24 -5 -35 5 -15 3 -17 -6 -9 -19 18
-8 46 25 64 17 10 32 16 35 14 13 -6 27 14 47 66 12 30 24 62 28 71 5 14 -1
16 -37 14 -24 -2 -33 -1 -22 2 24 5 34 37 34 111 0 25 3 42 7 38 4 -4 6 -27 4
-52 -2 -31 1 -44 8 -40 6 4 11 18 11 32 0 13 5 24 11 24 7 0 10 -11 7 -27 -3
-16 -2 -39 2 -53 7 -23 8 -22 9 10 1 26 4 31 11 20 5 -8 7 -25 3 -37 -8 -34
13 -28 26 7 7 23 7 30 -2 30 -19 0 -36 35 -30 61 3 17 2 20 -5 10 -14 -20 -25
4 -29 63 -3 59 4 56 16 -5 l9 -44 1 51 c1 27 -2 54 -6 60 -5 5 2 -1 15 -13 12
-12 22 -28 22 -35z m-852 -38 c104 0 112 -123 11 -175 -31 -16 -39 -35 -15
-35 8 0 37 -18 65 -40 66 -52 94 -63 137 -51 40 11 43 1 14 -46 -17 -29 -23
-32 -52 -26 -46 8 -87 30 -130 69 -43 38 -75 49 -123 41 -31 -5 -33 -3 -37 24
-4 27 1 34 41 61 70 47 91 69 91 95 0 37 -39 31 -46 -7 -5 -25 -11 -30 -34
-30 -37 0 -47 40 -25 94 13 32 20 37 38 32 12 -3 41 -6 65 -6z m507 -15 c14
-13 25 -35 25 -49 0 -27 -45 -78 -91 -102 -16 -8 -29 -17 -29 -19 0 -9 65 8
80 21 27 23 40 3 32 -46 l-8 -45 -96 -3 c-97 -3 -97 -2 -104 22 -9 36 -6 39
66 88 50 33 66 49 68 71 5 40 -32 38 -47 -3 -7 -22 -16 -30 -34 -30 -21 0 -25
6 -29 35 -5 44 3 57 44 72 55 19 96 16 123 -12z m195 18 c0 -5 -9 -53 -19
-108 -20 -101 -18 -114 17 -115 8 0 12 -8 10 -17 -3 -15 -16 -18 -86 -21 -76
-3 -82 -1 -82 17 0 12 10 23 29 29 23 8 29 17 35 53 4 24 9 58 12 76 5 27 3
32 -17 35 -38 5 -36 35 3 47 41 11 98 14 98 4z m-429 -16 c46 -35 55 -133 19
-193 -39 -63 -114 -83 -163 -43 -68 52 -47 195 34 236 31 16 89 16 110 0z
m-216 -515 c15 -10 17 -32 3 -32 -6 0 -8 -3 -5 -7 4 -3 0 -18 -10 -32 l-16
-26 24 20 23 20 -17 -27 c-24 -39 -21 -44 8 -11 14 16 25 22 25 14 0 -11 3
-11 15 -1 11 9 12 16 2 31 -6 10 -15 19 -20 19 -4 0 -5 -4 -2 -10 3 -5 2 -10
-4 -10 -5 0 -9 9 -8 19 1 16 6 19 31 14 21 -4 27 -3 22 5 -8 13 7 14 44 2 l25
-8 -27 -1 c-27 -1 -28 -4 -16 -50 2 -8 -7 -17 -22 -21 -17 -4 -21 -8 -12 -14
7 -4 20 -2 28 5 13 10 17 10 25 -2 5 -8 9 -19 9 -26 0 -6 6 -13 13 -16 6 -2 9
-8 5 -12 -4 -4 -28 0 -54 9 -26 9 -50 14 -52 11 -8 -7 48 -25 97 -32 38 -5 44
-3 34 8 -16 16 -17 29 -2 29 14 0 40 -26 33 -33 -3 -3 4 -3 17 0 15 4 20 2 15
-5 -9 -15 -153 -9 -188 8 -34 16 -40 55 -7 47 17 -4 18 -3 8 9 -13 16 -39 2
-39 -22 0 -22 -20 -16 -30 9 -5 13 -9 16 -10 7 0 -13 -2 -13 -9 -1 -6 10 -2
22 14 39 14 15 21 32 17 44 -4 15 -7 17 -13 6 -7 -10 -9 -10 -9 3 0 26 16 36
35 21z m350 -41 c15 -22 32 -38 39 -35 17 7 66 -13 66 -26 0 -7 -6 -8 -19 0
-28 15 -51 13 -45 -4 6 -17 62 -42 71 -32 3 3 0 6 -8 6 -9 0 -24 7 -35 15 -15
11 -8 11 35 -3 30 -9 47 -18 38 -20 -9 -2 -17 -7 -17 -10 0 -10 -72 -8 -89 2
-9 6 -20 1 -33 -15 -11 -13 -17 -18 -13 -11 9 17 -16 25 -46 14 -27 -10 -77 6
-98 32 -10 12 -18 13 -33 5 -23 -12 -23 -12 -32 19 -6 16 -3 22 8 22 10 0 13
-6 10 -15 -4 -10 0 -15 11 -15 13 0 15 5 10 18 -14 32 -18 72 -6 72 6 0 11
-12 11 -28 0 -15 7 -38 16 -50 15 -22 57 -50 52 -35 -3 9 5 13 25 13 8 0 7 -4
-3 -10 -13 -8 -13 -10 2 -10 29 0 28 15 -3 32 -24 14 -29 15 -29 2 0 -12 -3
-12 -20 -2 -13 8 -19 20 -16 30 2 10 0 21 -5 24 -5 3 -9 14 -9 25 0 18 4 20
33 14 17 -4 32 -8 32 -9 0 -10 43 -83 53 -89 7 -5 10 -12 7 -16 -2 -5 6 -11
20 -13 14 -3 25 -1 25 3 0 5 7 9 16 9 22 0 8 38 -27 74 -16 17 -29 36 -29 43
0 20 5 16 35 -26z"/>
</g>
</svg>
