<?xml version="1.0" standalone="no"?>
<!DOCTYPE svg PUBLIC "-//W3C//DTD SVG 20010904//EN"
 "http://www.w3.org/TR/2001/REC-SVG-20010904/DTD/svg10.dtd">
<svg version="1.0" xmlns="http://www.w3.org/2000/svg"
 width="469.000000pt" height="107.000000pt" viewBox="0 0 469.000000 107.000000"
 preserveAspectRatio="xMidYMid meet">
<metadata>
Created by potrace 1.16, written by Peter Selinger 2001-2019
</metadata>
<g transform="translate(0.000000,107.000000) scale(0.100000,-0.100000)"
fill="#000000" stroke="none">
<path d="M0 535 l0 -535 1629 0 c1544 0 1630 1 1634 18 4 16 5 16 6 0 1 -16
12 -18 77 -18 67 0 75 2 64 15 -7 9 -10 18 -6 22 3 3 6 1 6 -6 0 -7 5 -9 10
-6 6 4 9 1 8 -6 -2 -7 4 -14 14 -16 14 -4 16 3 12 39 l-4 43 11 -43 10 -43
109 2 110 1 -26 44 c-14 24 -24 44 -21 44 3 0 17 -20 31 -45 26 -44 28 -45 76
-45 41 0 50 3 50 18 1 16 1 16 11 0 7 -13 22 -18 51 -18 l41 0 -19 23 -19 22
26 -23 c17 -15 38 -22 65 -22 l39 0 -45 22 c-25 12 -47 25 -50 29 -3 3 -20 14
-37 23 -34 17 -37 25 -26 66 7 25 7 25 13 -5 3 -16 11 -29 18 -28 7 2 12 -2
12 -7 0 -21 20 -9 21 13 1 12 6 2 12 -23 l11 -45 7 35 c3 19 7 26 8 15 2 -24
25 -57 34 -48 4 3 7 -1 7 -10 0 -10 5 -14 15 -11 8 4 15 13 15 21 0 8 5 11 10
8 6 -3 10 -16 10 -28 1 -22 1 -22 12 -2 12 19 12 19 19 -5 l7 -25 0 25 c1 34
-99 118 -110 92 -6 -15 -7 -15 -7 2 -1 21 -99 126 -118 126 -7 0 -13 5 -13 10
0 18 10 12 107 -67 145 -119 235 -185 241 -179 3 4 0 6 -7 6 -7 0 -10 4 -7 9
3 5 -2 12 -12 16 -16 7 -15 8 3 15 17 7 16 9 -10 10 -18 2 -23 4 -12 7 35 9
10 33 -36 33 -25 0 -12 16 18 23 12 3 3 6 -20 7 -39 2 -39 3 -10 10 l30 8 -27
1 c-30 1 -45 16 -26 25 7 4 -2 4 -19 1 -18 -2 -33 0 -33 5 0 5 12 11 27 13 22
3 19 4 -12 6 -32 2 -36 4 -20 11 16 7 14 9 -15 10 -30 0 -32 2 -17 11 10 6 25
8 33 5 8 -3 13 -2 10 3 -11 17 48 20 61 3 30 -38 93 -150 110 -194 12 -33 23
-48 35 -48 10 0 18 5 18 12 0 9 3 9 12 0 7 -7 21 -12 32 -12 17 0 14 5 -17 31
-35 29 -48 61 -28 73 4 3 6 -7 3 -22 -4 -26 -4 -26 11 -7 16 19 16 19 11 -5
-5 -24 -5 -24 10 -6 15 19 16 19 17 -10 0 -25 2 -26 9 -9 7 17 9 16 10 -10 1
-26 3 -27 10 -10 8 18 9 18 9 -5 1 -20 3 -22 11 -10 6 10 10 11 10 3 0 -7 12
-13 27 -13 l27 0 -32 33 c-32 33 -33 48 -3 46 12 0 11 -3 -4 -9 -19 -8 -19 -9
-1 -9 11 -1 16 -4 13 -7 -7 -7 42 -54 55 -54 4 0 -3 25 -17 55 -30 69 -19 65
15 -4 14 -28 31 -51 38 -51 10 0 10 5 2 20 -8 15 -8 25 0 38 10 15 11 14 6 -6
-4 -20 -2 -21 10 -11 13 11 14 8 8 -17 -6 -28 -6 -28 10 -9 13 16 15 17 10 3
-5 -14 -1 -18 19 -18 14 0 28 6 30 13 4 10 6 10 6 0 1 -19 29 -15 34 4 4 17 5
17 6 1 1 -12 9 -18 27 -18 14 0 23 3 20 8 -2 4 2 18 10 32 13 24 13 24 8 -10
-6 -33 -6 -34 9 -15 20 25 23 105 4 105 -36 0 -140 100 -123 118 4 4 12 0 16
-8 27 -44 29 -46 41 -30 8 12 9 10 4 -7 -7 -24 10 -33 18 -10 2 6 3 4 2 -5 -2
-10 1 -21 6 -24 5 -3 9 3 10 13 1 13 3 11 9 -7 4 -14 9 -18 10 -10 1 11 4 9
10 -5 7 -17 9 -16 9 11 1 21 -8 39 -29 59 -16 16 -28 31 -25 33 2 2 15 -9 29
-24 l25 -29 1 438 0 437 -540 0 -540 0 -12 -45 c-7 -25 -15 -45 -19 -45 -8 0
-3 65 6 80 9 14 -8 13 -24 -3 -11 -9 -13 -9 -7 1 6 9 -352 12 -1773 12 l-1781
0 0 -535z m3489 411 c50 -27 88 -80 101 -143 31 -157 49 -199 96 -229 27 -18
56 -21 117 -11 30 5 37 3 38 -11 0 -11 2 -12 6 -4 3 7 0 18 -5 25 -7 7 -7 18
-2 26 4 8 7 19 5 25 -2 6 -6 23 -9 37 -7 31 -42 50 -73 38 -24 -9 -33 -51 -10
-47 6 2 11 -2 10 -9 -2 -8 4 -10 15 -6 14 5 13 1 -5 -17 -16 -17 -28 -21 -48
-16 -18 5 -25 12 -21 21 3 9 0 12 -9 9 -9 -4 -16 5 -20 29 -14 72 48 133 122
121 44 -7 73 -21 73 -34 0 -17 -52 -11 -74 8 l-21 17 20 -23 c16 -20 27 -23
58 -19 30 4 39 1 48 -14 17 -32 22 -105 10 -142 -11 -33 -61 -91 -61 -70 0 6
-10 13 -22 16 -21 5 -21 5 -5 -7 24 -18 21 -33 -7 -40 -13 -3 -31 -9 -40 -12
-9 -4 -16 -1 -16 6 0 13 -39 49 -54 50 -5 0 3 -9 18 -21 32 -25 33 -39 4 -39
-28 1 -68 32 -68 54 0 8 -4 18 -10 21 -6 3 -7 -1 -4 -9 3 -9 1 -16 -5 -16 -19
0 -52 63 -46 87 3 12 1 25 -5 28 -5 3 -8 0 -5 -7 3 -7 0 -20 -5 -28 -9 -13
-11 -13 -20 0 -14 22 -13 53 3 44 9 -6 9 -5 0 8 -7 8 -9 19 -5 23 4 5 2 5 -5
1 -12 -6 -15 1 -28 67 -2 10 3 17 11 17 8 0 14 4 14 10 0 5 -7 7 -15 4 -10 -4
-15 0 -15 15 0 34 -26 88 -49 100 -11 6 -38 13 -60 16 -39 5 -40 5 -57 -40
-14 -38 -18 -43 -28 -29 -7 9 -13 31 -14 49 -2 29 3 38 35 59 43 30 99 34 142
12z m-1364 -108 l-5 -53 20 33 c22 36 42 47 65 38 19 -7 8 -37 -13 -34 -9 2
-18 -5 -20 -14 -6 -30 35 -23 42 7 7 29 39 49 66 40 30 -10 27 -70 -4 -90 -23
-15 -56 -12 -56 6 0 5 -13 3 -30 -6 -25 -13 -31 -13 -42 -1 -11 12 -15 12 -30
-1 -9 -8 -21 -12 -27 -8 -14 8 -7 88 8 93 6 2 9 8 5 13 -6 11 4 29 17 29 6 0
7 -22 4 -52z m-339 15 c12 -57 15 -58 37 -18 17 30 30 41 51 43 23 3 27 0 22
-15 -17 -59 -17 -90 0 -107 11 -11 25 -15 40 -12 26 7 27 6 18 -18 -9 -22 -46
-20 -78 5 -19 15 -26 30 -27 57 l0 37 -22 -42 c-12 -25 -28 -43 -38 -43 -11 0
-19 13 -24 43 l-8 42 -7 -35 c-3 -19 -3 -39 2 -44 15 -19 8 -26 -27 -26 -33 0
-46 12 -26 24 8 5 23 63 27 106 2 28 4 30 29 30 19 0 26 -7 31 -27z m2453 2
l55 -17 -25 -19 c-13 -10 -50 -34 -81 -53 l-56 -34 -19 20 c-18 21 -18 21 4 9
28 -14 36 -14 27 1 -5 8 -2 9 9 5 16 -6 16 -4 2 17 -16 24 -16 24 37 32 29 4
44 10 33 12 -11 2 -26 9 -34 16 -12 8 -13 8 -7 -1 4 -7 2 -13 -4 -13 -6 0 -13
6 -16 14 -6 16 -39 15 -39 -2 0 -16 -15 -27 -15 -11 -1 10 -5 8 -17 -6 -15
-20 -15 -19 -10 5 6 24 5 24 -19 -5 -17 -20 -22 -23 -15 -8 17 33 13 38 -10
12 l-20 -24 12 25 c11 24 10 24 -22 -5 -19 -16 -26 -21 -16 -9 9 11 14 24 10
27 -3 4 -15 -5 -25 -20 -10 -16 -18 -23 -18 -17 0 5 5 15 12 22 9 9 9 15 -1
25 -10 8 -12 8 -7 0 3 -6 1 -15 -5 -19 -8 -4 -9 -3 -5 4 4 7 4 12 -1 12 -13
-1 -48 -30 -45 -38 2 -3 -2 -8 -10 -10 -9 -2 -8 0 2 7 8 6 11 11 7 11 -4 0 -3
8 2 19 22 41 220 50 330 16z m-900 -66 c54 -36 161 -143 185 -186 8 -14 7 -15
-13 -1 -12 8 -37 30 -56 47 -20 18 -39 30 -44 27 -4 -3 -25 9 -46 26 -20 17
-45 32 -54 33 -9 1 -27 7 -41 13 -24 10 -24 11 11 11 29 1 46 -8 83 -40 25
-22 46 -37 46 -32 0 13 -55 58 -93 77 -19 9 -57 16 -84 16 l-48 -1 38 -22
c158 -91 331 -206 375 -250 51 -51 52 -53 36 -76 -36 -50 -103 -61 -234 -36
-123 23 -134 25 -150 31 -8 3 -58 8 -110 11 -85 5 -109 13 -110 35 0 19 77 25
152 13 38 -7 41 -6 29 8 -9 11 -11 34 -8 73 10 107 46 100 74 -14 l20 -80 -36
4 c-20 2 1 -5 45 -15 74 -18 203 -37 162 -25 -22 7 -24 47 -2 65 20 16 34 -2
34 -44 0 -27 1 -28 48 -25 63 4 69 32 15 68 -20 14 -40 25 -44 25 -3 0 -28 14
-55 31 -69 45 -144 89 -231 134 -96 51 -148 53 -253 10 -40 -16 -78 -30 -85
-30 -7 0 -24 -9 -38 -20 -31 -25 -33 -25 -40 1 -4 16 4 26 41 50 26 16 58 38
70 49 13 11 29 17 34 13 7 -3 8 -1 4 6 -4 6 0 14 11 18 10 3 26 13 36 21 12
11 17 12 17 2 0 -8 6 -10 18 -5 30 13 84 21 158 23 68 2 74 1 133 -39z m-929
-108 c0 -16 -7 -66 -16 -111 -16 -85 -13 -99 24 -100 6 0 12 -6 12 -14 0 -16
-42 -24 -120 -22 -44 1 -55 5 -58 19 -3 12 5 19 27 23 26 5 31 12 40 53 25
112 25 110 -3 117 -16 4 -26 13 -26 24 0 16 18 22 113 39 4 0 7 -12 7 -28z
m-649 3 c17 -5 39 -45 39 -72 0 -25 -26 -59 -71 -92 -36 -25 -38 -29 -20 -35
11 -3 42 -24 68 -46 55 -45 95 -59 137 -48 16 5 31 7 33 5 2 -1 -4 -20 -13
-41 -15 -37 -16 -37 -64 -33 -35 4 -60 14 -85 34 -89 72 -98 76 -147 71 -48
-4 -58 3 -58 41 0 9 30 37 65 61 65 43 89 81 67 103 -17 17 -39 2 -45 -31 -5
-25 -12 -31 -32 -31 -32 0 -42 37 -24 92 l13 40 60 -7 c34 -4 68 -8 77 -11z
m208 5 c60 -21 80 -114 41 -195 -43 -88 -156 -99 -195 -19 -18 38 -19 66 -5
117 12 43 60 95 93 101 12 2 25 5 28 6 3 0 20 -4 38 -10z m256 -14 c42 -41 31
-74 -42 -130 l-46 -35 32 0 c17 0 34 6 37 13 10 27 34 15 34 -17 0 -76 -2 -77
-109 -74 l-96 3 -3 32 c-3 29 2 35 50 66 65 42 91 70 86 94 -6 32 -41 22 -50
-14 -7 -26 -14 -33 -33 -33 -20 0 -25 6 -31 35 -11 58 19 80 109 84 28 1 44
-5 62 -24z m891 10 c28 -11 35 -20 31 -34 -5 -20 7 -104 19 -135 6 -17 3 -18
-42 -13 -27 3 -50 6 -51 6 -5 2 -41 87 -46 109 -8 33 32 51 76 34 37 -14 48
-9 17 8 -12 7 -38 10 -56 8 -53 -6 -44 23 9 31 4 0 24 -6 43 -14z m1031 -112
c78 -39 219 -168 192 -177 -36 -11 -217 -14 -228 -3 -17 17 -13 31 6 16 14
-12 16 -12 8 0 -6 11 -4 13 7 9 11 -5 14 0 10 18 -2 13 -10 24 -17 24 -25 0
-160 33 -149 37 18 6 209 -35 265 -57 59 -24 64 -24 47 -6 -7 7 -19 11 -27 8
-10 -4 -13 -1 -8 11 4 11 2 14 -9 10 -7 -3 -14 0 -14 6 0 6 -7 8 -17 4 -13 -5
-15 -2 -10 12 6 15 5 16 -8 5 -21 -17 -31 -5 -14 17 12 15 11 15 -13 -1 -29
-19 -38 -11 -15 14 6 7 1 6 -13 -3 -37 -25 -47 -20 -19 10 l24 27 -32 -22
c-44 -31 -51 -27 -17 10 l29 32 -37 -27 c-43 -31 -49 -26 -15 11 25 28 4 20
-30 -11 -13 -11 -23 -17 -23 -12 0 5 10 20 23 33 12 14 16 22 8 17 -7 -4 -16
-3 -20 4 -5 8 -15 5 -34 -9 -15 -12 -27 -17 -27 -12 0 17 64 50 85 45 11 -3
52 -21 92 -40z m-391 -170 c-7 -55 -28 -88 -77 -122 -31 -21 -41 -23 -118 -17
-47 4 -87 8 -89 11 -2 2 0 16 6 32 7 23 14 28 38 25 23 -2 26 0 14 9 -12 8
-10 9 10 4 14 -4 41 -9 60 -10 19 -2 25 -1 13 1 -13 3 -23 8 -23 12 0 9 87 8
96 -1 4 -4 -2 -7 -14 -7 -12 0 -22 -4 -22 -10 0 -5 11 -10 25 -10 31 0 65 50
65 98 0 17 5 32 11 32 8 0 10 -15 5 -47z"/>
</g>
</svg>
